<?xml version="1.0" encoding="UTF-8" standalone="no"?> <svg id="레이어_1" data-name="레이어 1" xmlns="http://www.w3.org/2000/svg" viewBox="0 0 48 48"><path d="M37.17,12.46H32.76c-.88-9.91-16.64-9.91-17.52,0-2.53.15-7.25-1-7.35,2.95V40A2.94,2.94,0,0,0,10.83,43H37.17A2.94,2.94,0,0,0,40.11,40V15.41A3,3,0,0,0,37.17,12.46ZM23.76,7a6.52,6.52,0,0,1,7,5.49H17.24A6.43,6.43,0,0,1,23.76,7ZM38.11,40a.94.94,0,0,1-.94.94H10.83A.94.94,0,0,1,9.89,40V15.41a1,1,0,0,1,.94-.95H15.2v4.61a1,1,0,0,0,2,0V14.46H30.8v4.61a1,1,0,1,0,2,0V14.46h4.37a1,1,0,0,1,.94.95Z"/></svg>