<?xml version="1.0" encoding="utf-8"?>
<!-- Generator: Adobe Illustrator 16.0.0, SVG Export Plug-In . SVG Version: 6.00 Build 0)  -->
<!DOCTYPE svg PUBLIC "-//W3C//DTD SVG 1.0//EN" "http://www.w3.org/TR/2001/REC-SVG-20010904/DTD/svg10.dtd">
<svg version="1.0" id="Layer_1" xmlns="http://www.w3.org/2000/svg" xmlns:xlink="http://www.w3.org/1999/xlink" x="0px" y="0px"
	 width="100px" height="100px" viewBox="0 0 100 100" enable-background="new 0 0 100 100" xml:space="preserve">
<path fill="none" stroke="#000000" stroke-width="2" stroke-linecap="round" stroke-linejoin="round" stroke-miterlimit="10" d="
	M64.998,39.998C78.809,39.998,90,49.792,90,61.875c0,5.547-2.362,10.604-6.25,14.462L86.875,90l-11.391-8.266
	c-3.19,1.289-6.74,2.016-10.486,2.016c-13.806,0-24.999-9.792-24.999-21.875C39.999,49.792,51.192,39.998,64.998,39.998z"/>
<path fill="none" stroke="#000000" stroke-width="2" stroke-linecap="round" stroke-linejoin="round" stroke-miterlimit="10" d="
	M39.999,61.875c0-12.083,11.193-21.877,24.999-21.877c5.52,0,10.604,1.585,14.739,4.234C79.896,43.047,80,41.848,80,40.625
	C80,23.712,64.33,10,45.001,10C25.67,10,10,23.712,10,40.625c0,7.764,3.308,14.847,8.749,20.246l-4.375,19.127L30.323,68.43
	c3.707,1.5,7.774,2.413,12.044,2.696C40.864,68.313,39.999,65.186,39.999,61.875z"/>
</svg>
